<svg width="196" height="71" viewBox="0 0 196 71" fill="none" xmlns="http://www.w3.org/2000/svg">
<rect x="21.3679" y="18.364" width="148.81" height="50.7048" rx="25.3524" transform="rotate(-6.1958 21.3679 18.364)" fill="#F36336"/>
<path d="M64.2417 47.8064C63.1945 47.92 62.2067 47.8395 61.2783 47.5648C60.3617 47.2753 59.5347 46.822 58.7971 46.2046C58.0727 45.5859 57.4812 44.832 57.0226 43.9429C56.564 43.0539 56.2749 42.0593 56.1555 40.9591C56.0346 39.8456 56.1028 38.8055 56.3599 37.8388C56.6171 36.8721 57.033 36.0088 57.6077 35.249C58.1824 34.4892 58.8936 33.8755 59.7415 33.408C60.5879 32.9271 61.5346 32.6299 62.5818 32.5162C63.6025 32.4054 64.5365 32.485 65.384 32.7552C66.2447 33.0238 66.9843 33.413 67.6029 33.9225C68.2348 34.4306 68.7053 34.9965 69.0144 35.6201L67.3134 36.6296C66.8795 35.8451 66.2707 35.2406 65.487 34.8161C64.7018 34.3783 63.7989 34.2148 62.7782 34.3256C61.7443 34.4378 60.8497 34.783 60.0943 35.3613C59.3523 35.9381 58.8034 36.6884 58.4477 37.6121C58.0919 38.5359 57.9774 39.5811 58.104 40.7475C58.2292 41.9008 58.5647 42.8904 59.1103 43.7163C59.656 44.5422 60.3531 45.1572 61.2017 45.5614C62.0635 45.964 63.0114 46.1092 64.0453 45.997C65.066 45.8862 65.9135 45.5394 66.5879 44.9565C67.2608 44.3604 67.725 43.6327 67.9804 42.7735L69.8584 43.3944C69.6903 44.0698 69.3522 44.7235 68.8441 45.3553C68.3492 45.9858 67.7103 46.5245 66.9273 46.9716C66.1576 47.4173 65.2624 47.6956 64.2417 47.8064ZM79.5974 46.1393C78.5503 46.253 77.5492 46.1739 76.5943 45.9021C75.6379 45.617 74.7777 45.1672 74.0136 44.5527C73.2627 43.9368 72.6447 43.1858 72.1596 42.2996C71.673 41.4002 71.37 40.4004 71.2506 39.3002C71.1297 38.1868 71.2111 37.1452 71.4948 36.1756C71.7784 35.206 72.2209 34.3399 72.8221 33.5772C73.4365 32.8131 74.1743 32.1965 75.0354 31.7275C75.9097 31.2571 76.8771 30.9643 77.9375 30.8492C78.998 30.7341 79.9997 30.8198 80.9428 31.1063C81.8978 31.3782 82.7506 31.8221 83.5015 32.438C84.2642 33.0392 84.8881 33.7828 85.3732 34.669C85.8716 35.5537 86.1813 36.5528 86.3021 37.6662C86.4216 38.7664 86.3335 39.8087 86.038 40.793C85.7544 41.7626 85.3053 42.6295 84.6909 43.3936C84.0897 44.1563 83.3526 44.7794 82.4797 45.2631C81.6186 45.7322 80.6579 46.0242 79.5974 46.1393ZM79.401 44.33C80.2229 44.2407 80.956 44.0136 81.6003 43.6486C82.2433 43.2704 82.7812 42.7895 83.2141 42.206C83.6588 41.6079 83.9755 40.9431 84.1644 40.2118C84.365 39.4658 84.4215 38.6885 84.3337 37.8799C84.2459 37.0713 84.0247 36.3309 83.6701 35.6586C83.3287 34.9848 82.8774 34.4102 82.3161 33.9346C81.7667 33.4444 81.1381 33.0902 80.4304 32.8719C79.7213 32.6405 78.9558 32.5693 78.134 32.6585C77.3254 32.7463 76.5996 32.9793 75.9567 33.3576C75.3123 33.7226 74.7678 34.2042 74.3231 34.8024C73.8902 35.3858 73.5727 36.0439 73.3706 36.7767C73.1685 37.5094 73.1113 38.2801 73.1991 39.0887C73.2869 39.8973 73.5088 40.6444 73.8649 41.3299C74.2195 42.0023 74.6716 42.5835 75.221 43.0738C75.7823 43.5493 76.4175 43.9028 77.1266 44.1343C77.8343 44.3525 78.5924 44.4177 79.401 44.33ZM89.5515 44.8173L87.9434 30.0043L89.7329 29.8101L96.1372 37.1015L95.2226 37.2008L99.8733 28.7092L101.663 28.515L103.271 43.3279L101.302 43.5416L99.962 31.1942L100.682 31.3373L96.0158 39.6897L95.8568 39.707L89.567 32.5439L90.1596 32.2583L91.5 44.6058L89.5515 44.8173ZM113.268 42.4841C112.22 42.5978 111.219 42.5187 110.264 42.2468C109.308 41.9617 108.448 41.5119 107.684 40.8975C106.933 40.2816 106.315 39.5305 105.83 38.6444C105.343 37.745 105.04 36.7452 104.921 35.645C104.8 34.5315 104.881 33.49 105.165 32.5204C105.449 31.5508 105.891 30.6846 106.492 29.9219C107.107 29.1578 107.844 28.5413 108.706 28.0723C109.58 27.6018 110.547 27.309 111.608 27.1939C112.668 27.0788 113.67 27.1645 114.613 27.4511C115.568 27.7229 116.421 28.1668 117.172 28.7827C117.934 29.3839 118.558 30.1276 119.043 31.0137C119.542 31.8984 119.851 32.8975 119.972 34.011C120.092 35.1112 120.004 36.1534 119.708 37.1377C119.425 38.1074 118.975 38.9742 118.361 39.7383C117.76 40.501 117.023 41.1242 116.15 41.6079C115.289 42.0769 114.328 42.369 113.268 42.4841ZM113.071 40.6747C113.893 40.5855 114.626 40.3584 115.27 39.9934C115.913 39.6151 116.451 39.1342 116.884 38.5508C117.329 37.9526 117.646 37.2879 117.835 36.5566C118.035 35.8106 118.092 35.0333 118.004 34.2247C117.916 33.4161 117.695 32.6756 117.34 32.0033C116.999 31.3296 116.548 30.7549 115.986 30.2794C115.437 29.7891 114.808 29.4349 114.101 29.2167C113.391 28.9852 112.626 28.9141 111.804 29.0033C110.996 29.0911 110.27 29.3241 109.627 29.7024C108.982 30.0674 108.438 30.549 107.993 31.1471C107.56 31.7306 107.243 32.3887 107.041 33.1214C106.839 33.8542 106.781 34.6249 106.869 35.4334C106.957 36.242 107.179 36.9891 107.535 37.6747C107.89 38.347 108.342 38.9283 108.891 39.4185C109.452 39.894 110.088 40.2476 110.797 40.479C111.504 40.6973 112.263 40.7625 113.071 40.6747ZM123.222 41.1621L121.614 26.3491L123.244 26.1721L133.053 37.2179L132.326 37.3773L131.018 25.3281L132.987 25.1144L134.595 39.9274L132.964 40.1044L123.186 28.9747L123.853 28.8218L125.17 40.9505L123.222 41.1621ZM137.629 35.2123L136.372 24.7469L138.321 24.5353L139.319 35.0289L137.629 35.2123ZM137.981 39.5598L137.722 37.1738L139.67 36.9623L139.929 39.3483L137.981 39.5598Z" fill="#1B1B1B"/>
</svg>
