<svg width="57" height="40" viewBox="0 0 57 40" fill="none" xmlns="http://www.w3.org/2000/svg">
<g id="Group 63">
<path id="Vector" fill-rule="evenodd" clip-rule="evenodd" d="M28.4814 39.0441C43.8564 39.0441 56.3202 30.4787 56.3202 19.9133C56.3202 9.348 43.8564 0.782532 28.4814 0.782532C13.1068 0.782532 0.642639 9.348 0.642639 19.9133C0.642639 30.4787 13.1068 39.0441 28.4814 39.0441Z" fill="#1B1B1B"/>
<path id="Vector_2" fill-rule="evenodd" clip-rule="evenodd" d="M34.1235 26.0971L35.5044 16.4599C35.8161 14.2847 35.5569 12.6624 34.7345 11.6371C33.9377 10.6452 32.5851 10.1627 30.5997 10.1627H28.2082L28.8923 5.38784C28.9051 5.29897 28.9033 5.20736 28.8869 5.11958C28.8705 5.03179 28.84 4.95001 28.7975 4.8801C28.7551 4.8102 28.7018 4.7539 28.6414 4.71525C28.581 4.6766 28.515 4.65656 28.4483 4.65656H25.1476C24.9308 4.65656 24.7446 4.86517 24.7032 5.15366L23.2365 15.3848C23.1032 14.2336 22.7747 13.2439 22.2489 12.4273C21.2807 10.9245 19.7494 10.1627 17.6969 10.1627H11.2996C11.0828 10.1627 10.8966 10.3713 10.8552 10.6593L7.88713 31.3691C7.86121 31.5494 7.89588 31.7347 7.98206 31.8762C8.0679 32.0182 8.19582 32.0999 8.33148 32.0999H11.6581C11.8749 32.0999 12.061 31.8913 12.1024 31.6023L12.8205 26.5933H15.2967C16.5961 26.5933 17.6882 26.4025 18.5405 26.0264C19.4121 25.642 20.2143 24.9902 20.9212 24.0927C21.4924 23.3811 21.9644 22.584 22.3276 21.7245L21.7348 25.8621C21.7089 26.0424 21.7436 26.2286 21.8297 26.3692C21.9156 26.5112 22.0438 26.5929 22.1792 26.5929H25.4798C25.6966 26.5929 25.8828 26.3843 25.9242 26.0962L27.5532 14.7284H29.818C30.7831 14.7284 31.0659 14.9891 31.143 15.1009C31.2127 15.2032 31.3574 15.5633 31.1948 16.6986L29.882 25.8616C29.8694 25.9504 29.8714 26.042 29.8879 26.1296C29.9044 26.2173 29.935 26.2989 29.9774 26.3687C30.0199 26.4385 30.0731 26.4947 30.1335 26.5334C30.1938 26.5721 30.2596 26.5922 30.3263 26.5924H33.6795C33.7845 26.5927 33.8862 26.5434 33.9672 26.453C34.0482 26.3626 34.1035 26.2368 34.1235 26.0971ZM18.8209 18.1342C18.6136 19.579 18.2231 20.6093 17.6596 21.1968C17.0873 21.7952 16.172 22.0983 14.9389 22.0983H13.4644L14.5306 14.6586H16.4369C17.8373 14.6586 18.4015 15.0644 18.628 15.4045C18.9421 15.8765 19.0088 16.8209 18.8209 18.1342ZM48.0268 12.4273C47.059 10.9245 45.5276 10.1627 43.4752 10.1627H37.0778C36.8607 10.1627 36.6749 10.3713 36.6335 10.6593L33.6657 31.3691C33.6395 31.5494 33.6741 31.7347 33.7603 31.8762C33.8465 32.0177 33.9748 32.0999 34.1094 32.0999H37.4363C37.6535 32.0999 37.8393 31.8913 37.8807 31.6023L38.5987 26.5933H41.0753C42.3751 26.5933 43.4661 26.4025 44.3188 26.0264C45.1907 25.642 45.9928 24.9902 46.6994 24.0927C47.2892 23.3582 47.7743 22.5325 48.1419 21.6409C48.5095 20.7494 48.7731 19.7552 48.9269 18.6852C49.305 16.0463 49.0023 13.941 48.0268 12.4273ZM44.788 18.1342C44.5803 19.579 44.1898 20.6093 43.627 21.1968C43.0544 21.7952 42.1391 22.0983 40.9063 22.0983H39.4316L40.4973 14.6586H42.404C43.8044 14.6586 44.3686 15.0644 44.5955 15.4045C44.9089 15.8765 44.9759 16.8209 44.788 18.1342Z" fill="#FFFEF5"/>
<path id="Vector_3" fill-rule="evenodd" clip-rule="evenodd" d="M16.3417 14.0441C17.6054 14.0441 18.448 14.3604 18.8691 14.9931C19.2899 15.6258 19.3902 16.7122 19.1701 18.251C18.9398 19.8537 18.4968 20.9977 17.8404 21.6833C17.1839 22.369 16.1848 22.7113 14.8437 22.7113H12.8198L14.062 14.0441H16.3417ZM8.2359 31.4854H11.5625L12.3519 25.9797H15.2015C16.4588 25.9797 17.4933 25.8003 18.3053 25.442C19.1172 25.0837 19.8555 24.4834 20.5196 23.6403C21.0771 22.9459 21.5282 22.1791 21.8736 21.341C22.2186 20.5028 22.4637 19.5785 22.6088 18.5674C22.9609 16.1124 22.6953 14.2002 21.8126 12.8307C20.9303 11.4608 19.5262 10.7761 17.6017 10.7761H11.2043L8.2359 31.4854ZM25.0521 5.27002H28.3527L27.5637 10.7761H30.5045C32.354 10.7761 33.6308 11.2134 34.333 12.0885C35.0352 12.9636 35.2456 14.3819 34.9649 16.3425L33.584 25.9797H30.2308L31.5437 16.8163C31.6928 15.7737 31.6383 15.0629 31.3787 14.6836C31.1192 14.3047 30.5668 14.1148 29.7225 14.1148H27.0846L25.3843 25.9797H22.0836L25.0521 5.27002ZM42.3089 14.0441C43.5726 14.0441 44.4148 14.3604 44.8363 14.9931C45.2571 15.6258 45.3571 16.7122 45.1369 18.251C44.9073 19.8537 44.4643 20.9977 43.8075 21.6833C43.1514 22.369 42.152 22.7113 40.8115 22.7113H38.7877L40.0295 14.0441H42.3089ZM34.2024 31.4854H37.5293L38.3184 25.9797H41.168C42.4257 25.9797 43.4601 25.8003 44.2721 25.442C45.0841 25.0837 45.8223 24.4834 46.4865 23.6403C47.0439 22.9459 47.495 22.1791 47.8401 21.341C48.1851 20.5028 48.4305 19.5785 48.5759 18.5674C48.9277 16.1124 48.6621 14.2002 47.7798 12.8307C46.8968 11.4608 45.4931 10.7761 43.5685 10.7761H37.1712L34.2024 31.4854Z" fill="#FFFEF5"/>
</g>
</svg>
