<svg width="38" height="40" viewBox="0 0 38 40" fill="none" xmlns="http://www.w3.org/2000/svg">
<g id="Group 44">
<path id="Vector" d="M0.487183 0.782532H37.6056V39.0441H0.487183V0.782532Z" fill="#1B1B1B"/>
<path id="Vector_2" d="M18.3099 14.9512H20.0904V18.1197H15.2766V32.2167L15.149 32.2526C14.975 32.3004 12.6841 32.3004 12.1912 32.2466L11.7968 32.2107V18.1197H6.98297V14.9512L8.50831 14.9332C9.34347 14.9213 11.4894 14.9213 13.2757 14.9332C15.062 14.9452 17.3239 14.9512 18.3099 14.9512ZM31.8987 30.7221C31.1911 31.4933 30.4314 31.9238 29.167 32.2765C28.6161 32.4319 28.5233 32.4379 27.2821 32.4319C26.041 32.426 25.9424 32.426 25.3392 32.2645C23.7791 31.852 22.5205 31.045 21.6622 29.9031C21.4186 29.5803 21.0184 28.9107 21.0184 28.827C21.0184 28.8031 21.0764 28.7493 21.1518 28.7134C21.2272 28.6775 21.3838 28.5759 21.5114 28.4982C21.639 28.4205 21.8709 28.277 22.0275 28.1933C22.1841 28.1096 22.6365 27.8346 23.0309 27.5895C23.4253 27.3443 23.7849 27.1471 23.8255 27.1471C23.8661 27.1471 23.9415 27.2308 23.9995 27.3324C24.3474 27.9362 25.1594 28.7074 25.7336 28.9705C26.0874 29.1259 26.8703 29.2993 27.2473 29.2993C27.5953 29.2993 28.2333 29.1438 28.5755 28.9824C28.9408 28.809 29.1264 28.6357 29.3468 28.2889C29.4976 28.0438 29.515 27.9781 29.5092 27.5117C29.5092 27.0813 29.486 26.9617 29.37 26.7644C29.0452 26.2144 28.6045 25.9275 26.8181 25.1144C24.9738 24.2715 24.1444 23.7693 23.4717 23.0937C22.9729 22.5915 22.8743 22.454 22.5611 21.8263C22.1551 21.0192 22.1029 20.7562 22.0971 19.5545C22.0913 18.7116 22.1087 18.4366 22.1957 18.1496C22.3175 17.7192 22.7119 16.8882 22.8917 16.6789C23.2629 16.2305 23.3963 16.093 23.6573 15.8718C24.446 15.2023 25.6756 14.7599 26.8529 14.718C26.9863 14.718 27.4271 14.7419 27.8389 14.7718C29.022 14.8735 29.8282 15.1724 30.6054 15.8121C31.1912 16.2903 32.0785 17.4143 31.9915 17.5637C31.9335 17.6534 29.6194 19.2436 29.4686 19.2915C29.3758 19.3214 29.312 19.2855 29.1844 19.1301C28.3957 18.1556 28.0767 17.9463 27.3111 17.8985C26.7659 17.8626 26.4759 17.9284 26.1106 18.1795C25.7278 18.4425 25.5422 18.8431 25.5422 19.3991C25.548 20.2121 25.8496 20.5948 26.9631 21.1627C27.6823 21.5274 28.2971 21.8263 28.3435 21.8263C28.4131 21.8263 29.9036 22.5915 30.2922 22.8307C32.1017 23.9247 32.8383 25.0486 33.0297 26.9856C33.1689 28.4444 32.7687 29.7775 31.8987 30.7221Z" fill="#FFFEF5"/>
</g>
</svg>
