<svg width="38" height="40" viewBox="0 0 38 40" fill="none" xmlns="http://www.w3.org/2000/svg">
<g id="Group 68">
<path id="Vector" d="M37.4872 0.782532H0.368805V39.0441H37.4872V0.782532Z" fill="#1B1B1B"/>
<path id="Vector_2" d="M25.3032 30.6746C26.0509 31.933 27.0236 32.8579 28.744 32.8579C30.1893 32.8579 31.1125 32.1134 31.1125 31.0845C31.1125 29.8517 30.164 29.415 28.5732 28.6978L27.7012 28.3121C25.1842 27.2068 23.5121 25.8221 23.5121 22.8947C23.5121 20.1982 25.5053 18.1454 28.6203 18.1454C30.838 18.1454 32.4323 18.941 33.5812 21.0242L30.8651 22.8219C30.2671 21.7165 29.6219 21.2811 28.6203 21.2811C27.5987 21.2811 26.9512 21.9491 26.9512 22.8219C26.9512 23.9005 27.5993 24.3371 29.0958 25.0052L29.9678 25.3903C32.9313 26.7003 34.6046 28.0358 34.6046 31.0384C34.6046 34.2754 32.1377 36.0488 28.8248 36.0488C25.5854 36.0488 23.4927 34.4576 22.4687 32.3721L25.3032 30.6746ZM12.9817 30.9862C13.5296 31.9883 14.0281 32.8355 15.2265 32.8355C16.3724 32.8355 17.0953 32.3733 17.0953 30.5762V18.3507H20.5833V30.6248C20.5833 34.3477 18.4658 36.0422 15.3749 36.0422C12.5822 36.0422 10.9649 34.5524 10.1424 32.758L12.9817 30.9862Z" fill="#FFFEF5"/>
</g>
</svg>
