<svg width="38" height="40" viewBox="0 0 38 40" fill="none" xmlns="http://www.w3.org/2000/svg">
<g id="Group 62">
<path id="Vector" d="M18.8418 0.782593C9.36963 0.782593 9.96106 5.01678 9.96106 5.01678L9.97158 9.40352H19.0106V10.7205H6.3814C6.3814 10.7205 0.32019 10.012 0.32019 19.8636C0.32019 29.7156 5.61056 29.3662 5.61056 29.3662H8.76784V24.7945C8.76784 24.7945 8.59763 19.3412 13.9738 19.3412H22.9389C22.9389 19.3412 27.9758 19.4251 27.9758 14.3232V5.88771C27.9758 5.88771 28.7408 0.782593 18.8418 0.782593ZM13.8576 3.73259C14.0712 3.73239 14.2828 3.77561 14.4801 3.85978C14.6775 3.94395 14.8568 4.06741 15.0079 4.2231C15.1589 4.37879 15.2787 4.56365 15.3603 4.76711C15.442 4.97056 15.4839 5.18862 15.4837 5.40879C15.4839 5.62897 15.442 5.84703 15.3603 6.05049C15.2787 6.25394 15.1589 6.4388 15.0079 6.59449C14.8568 6.75018 14.6775 6.87364 14.4801 6.95781C14.2828 7.04198 14.0712 7.0852 13.8576 7.085C13.644 7.0852 13.4325 7.04198 13.2351 6.95781C13.0377 6.87364 12.8584 6.75018 12.7073 6.59449C12.5563 6.4388 12.4365 6.25394 12.3549 6.05049C12.2732 5.84703 12.2313 5.62897 12.2315 5.40879C12.2313 5.18862 12.2732 4.97056 12.3549 4.76711C12.4365 4.56365 12.5563 4.37879 12.7073 4.2231C12.8584 4.06741 13.0377 3.94395 13.2351 3.85978C13.4325 3.77561 13.644 3.73239 13.8576 3.73259Z" fill="#1B1B1B"/>
<path id="Vector_2" d="M19.1098 39.0441C28.5819 39.0441 27.9905 34.8099 27.9905 34.8099L27.9799 30.4233H18.9407V29.1063H31.57C31.57 29.1063 37.6312 29.8148 37.6312 19.9629C37.6312 10.1111 32.3408 10.4605 32.3408 10.4605H29.1835V15.032C29.1835 15.032 29.3537 20.4853 23.9776 20.4853H15.0125C15.0125 20.4853 9.97559 20.4014 9.97559 25.5034V33.9391C9.97559 33.9391 9.21074 39.0441 19.1096 39.0441H19.1098ZM24.0939 36.0944C23.8803 36.0946 23.6688 36.0514 23.4714 35.9672C23.274 35.883 23.0947 35.7596 22.9436 35.6039C22.7926 35.4482 22.6728 35.2633 22.5912 35.0599C22.5095 34.8564 22.4676 34.6383 22.4678 34.4182C22.4676 34.198 22.5095 33.9799 22.5911 33.7764C22.6728 33.573 22.7926 33.3881 22.9436 33.2324C23.0946 33.0767 23.274 32.9532 23.4714 32.869C23.6687 32.7848 23.8803 32.7416 24.0939 32.7418C24.3075 32.7416 24.5191 32.7848 24.7164 32.869C24.9138 32.9532 25.0931 33.0766 25.2442 33.2323C25.3952 33.388 25.515 33.5729 25.5966 33.7763C25.6783 33.9798 25.7202 34.1978 25.72 34.418C25.7202 34.6382 25.6783 34.8563 25.5966 35.0597C25.515 35.2632 25.3952 35.448 25.2442 35.6037C25.0931 35.7594 24.9138 35.8829 24.7164 35.967C24.5191 36.0512 24.3075 36.0944 24.0939 36.0942V36.0944Z" fill="#1B1B1B"/>
</g>
</svg>
