<svg width="55" height="48" viewBox="0 0 55 48" fill="none" xmlns="http://www.w3.org/2000/svg">
<g id="Group 70">
<path id="Vector" d="M27.1238 28.1303C29.7503 28.1303 31.8796 26.2425 31.8796 23.9138C31.8796 21.5851 29.7503 19.6973 27.1238 19.6973C24.4972 19.6973 22.368 21.5851 22.368 23.9138C22.368 26.2425 24.4972 28.1303 27.1238 28.1303Z" fill="#1B1B1B"/>
<g id="Group">
<path id="Vector_2" d="M27.1247 32.5534C41.2183 32.5534 52.6435 28.6858 52.6435 23.9147C52.6435 19.1437 41.2183 15.2761 27.1247 15.2761C13.031 15.2761 1.60578 19.1437 1.60578 23.9147C1.60578 28.6858 13.031 32.5534 27.1247 32.5534Z" stroke="#1B1B1B" stroke-width="3"/>
<path id="Vector_3" d="M18.686 28.2328C25.7328 39.0542 35.2233 45.8929 39.8836 43.5074C44.5439 41.1219 42.6092 30.4155 35.5624 19.5941C28.5155 8.77268 19.025 1.93402 14.3647 4.31952C9.70447 6.70503 11.6392 17.4114 18.686 28.2328Z" stroke="#1B1B1B" stroke-width="3"/>
<path id="Vector_4" d="M18.6864 19.5942C11.6396 30.4156 9.70486 41.1219 14.3651 43.5074C19.0254 45.8929 28.5159 39.0543 35.5628 28.2328C42.6096 17.4114 44.5443 6.70508 39.884 4.31958C35.2237 1.93407 25.7332 8.77273 18.6864 19.5942Z" stroke="#1B1B1B" stroke-width="3"/>
</g>
</g>
</svg>
