<svg width="38" height="22" viewBox="0 0 38 22" fill="none" xmlns="http://www.w3.org/2000/svg">
<path id="Vector" d="M19.1426 0.41333C14.2092 0.41333 11.1259 2.74671 9.89241 7.41304C11.7426 5.07966 13.901 4.20497 16.3675 4.78809C17.775 5.12081 18.7808 6.08699 19.8945 7.15606C21.7082 8.89756 23.8073 10.9131 28.3929 10.9131C33.3259 10.9131 36.4096 8.57973 37.6426 3.91297C35.7929 6.24635 33.6345 7.12147 31.1675 6.53835C29.7605 6.20563 28.7547 5.23945 27.641 4.17038C25.8273 2.42888 23.7277 0.41333 19.1426 0.41333ZM9.89241 10.9131C4.95938 10.9131 1.87566 13.2465 0.642639 17.9133C2.49241 15.5799 4.65078 14.7047 7.11776 15.2883C8.52475 15.6215 9.5306 16.5872 10.6443 17.6558C12.4579 19.3973 14.5575 21.4133 19.1426 21.4133C24.0761 21.4133 27.1594 19.0799 28.3929 14.4132C26.5426 16.7466 24.3843 17.6217 21.9178 17.0381C20.5103 16.7059 19.5045 15.7392 18.3908 14.6706C16.5771 12.9291 14.478 10.9131 9.89241 10.9131Z" fill="#1B1B1B"/>
</svg>
