<svg width="105" height="6" viewBox="0 0 105 6" fill="none" xmlns="http://www.w3.org/2000/svg">
    <path
    id="Line Dash"
    d="M2 3.25C5.65919 3.13802 9.29005 2.21927 12.954 2M28.7353 2.49999C32.0305 2.49999 35.29 2.6153 38.5754 2.99999M52.3143 2.75C52.9505 3.51142 54.7915 3 55.5325 3C58.6402 3 61.682 3.40913 64.7537 4M74.7794 3.24999C75.5302 3.24999 76.2511 3.51207 76.9971 3.6111C79.7053 3.97064 82.4591 3.91683 85.1765 3.99999M93.5312 2.49999C94.9099 2.65469 96.2085 2.99999 97.6158 2.99999C99.444 2.99999 101.205 3.01647 103 3.49999"
    stroke="currentColor"
    strokeWidth="3"
    strokeLinecap="round"
    />
</svg>