<svg width="192" height="14" viewBox="0 0 192 14" fill="none" xmlns="http://www.w3.org/2000/svg">
<path id="Vector 17" d="M2 9C2.5 9.09269 7.84115 7.5 9 7.5C11.4715 5.81997 15.2035 6.82509 18.1743 5.75865C23.5801 3.81813 29.4513 2.95648 34.8418 5.18347C36.5456 5.88736 37.8528 7.08216 39.376 7.98595C40.6974 8.76997 42.2367 9.26806 43.6733 9.90731C46.0202 10.9517 47.6058 12 50.3877 12C55.3174 12 60.4164 9.43918 64.875 8.03491C69.6759 6.52284 74.4897 5.0429 79.3149 3.58029C85.0418 1.84441 89.7043 0.983076 95.0188 3.97191C99.3919 6.43136 104.254 8.55822 109.585 9.24646C114.904 9.9332 120.612 10.3792 125.984 9.8706C131.215 9.37536 135.772 7.34489 140.503 5.72193C143.605 4.65787 146.552 3.08834 149.903 2.52783C151.527 2.25619 152.96 2.02829 154.58 2.50335C157.36 3.31866 159.757 4.87737 162.479 5.83208C166.579 7.26997 170.792 9.17301 175.434 9.13632C177.347 9.1212 179.009 8.46875 180.805 8.03491C183.82 7.30678 186.922 6.81096 190 6.27264" stroke="#14D87A" stroke-width="3" stroke-linecap="round"/>
</svg>
